<svg width="170" height="145" viewBox="0 0 170 145" fill="none" xmlns="http://www.w3.org/2000/svg">
<rect x="0.5" y="0.5" width="169" height="144" rx="3.5" stroke="black" stroke-opacity="0.3"/>
<path d="M64.5985 103.848V105.032H59.7505V108.792H63.6865V109.976H59.7505V115H58.2945V103.848H64.5985ZM65.813 110.584C65.813 109.688 65.9943 108.904 66.357 108.232C66.7197 107.549 67.2157 107.021 67.845 106.648C68.485 106.275 69.1943 106.088 69.973 106.088C70.741 106.088 71.4077 106.253 71.973 106.584C72.5383 106.915 72.9597 107.331 73.237 107.832V106.232H74.709V115H73.237V113.368C72.949 113.88 72.517 114.307 71.941 114.648C71.3757 114.979 70.7143 115.144 69.957 115.144C69.1783 115.144 68.4743 114.952 67.845 114.568C67.2157 114.184 66.7197 113.645 66.357 112.952C65.9943 112.259 65.813 111.469 65.813 110.584ZM73.237 110.6C73.237 109.939 73.1037 109.363 72.837 108.872C72.5703 108.381 72.2077 108.008 71.749 107.752C71.301 107.485 70.805 107.352 70.261 107.352C69.717 107.352 69.221 107.48 68.773 107.736C68.325 107.992 67.9677 108.365 67.701 108.856C67.4343 109.347 67.301 109.923 67.301 110.584C67.301 111.256 67.4343 111.843 67.701 112.344C67.9677 112.835 68.325 113.213 68.773 113.48C69.221 113.736 69.717 113.864 70.261 113.864C70.805 113.864 71.301 113.736 71.749 113.48C72.2077 113.213 72.5703 112.835 72.837 112.344C73.1037 111.843 73.237 111.261 73.237 110.6ZM80.2735 115.144C79.6015 115.144 78.9988 115.032 78.4655 114.808C77.9322 114.573 77.5108 114.253 77.2015 113.848C76.8922 113.432 76.7215 112.957 76.6895 112.424H78.1935C78.2362 112.861 78.4388 113.219 78.8015 113.496C79.1748 113.773 79.6602 113.912 80.2575 113.912C80.8122 113.912 81.2495 113.789 81.5695 113.544C81.8895 113.299 82.0495 112.989 82.0495 112.616C82.0495 112.232 81.8788 111.949 81.5375 111.768C81.1962 111.576 80.6682 111.389 79.9535 111.208C79.3028 111.037 78.7695 110.867 78.3535 110.696C77.9482 110.515 77.5962 110.253 77.2975 109.912C77.0095 109.56 76.8655 109.101 76.8655 108.536C76.8655 108.088 76.9988 107.677 77.2655 107.304C77.5322 106.931 77.9108 106.637 78.4015 106.424C78.8922 106.2 79.4522 106.088 80.0815 106.088C81.0522 106.088 81.8362 106.333 82.4335 106.824C83.0308 107.315 83.3508 107.987 83.3935 108.84H81.9375C81.9055 108.381 81.7188 108.013 81.3775 107.736C81.0468 107.459 80.5988 107.32 80.0335 107.32C79.5108 107.32 79.0948 107.432 78.7855 107.656C78.4762 107.88 78.3215 108.173 78.3215 108.536C78.3215 108.824 78.4122 109.064 78.5935 109.256C78.7855 109.437 79.0202 109.587 79.2975 109.704C79.5855 109.811 79.9802 109.933 80.4815 110.072C81.1108 110.243 81.6228 110.413 82.0175 110.584C82.4122 110.744 82.7482 110.989 83.0255 111.32C83.3135 111.651 83.4628 112.083 83.4735 112.616C83.4735 113.096 83.3402 113.528 83.0735 113.912C82.8068 114.296 82.4282 114.6 81.9375 114.824C81.4575 115.037 80.9028 115.144 80.2735 115.144ZM89.8809 106.072C90.5422 106.072 91.1395 106.216 91.6729 106.504C92.2062 106.781 92.6222 107.203 92.9209 107.768C93.2302 108.333 93.3849 109.021 93.3849 109.832V115H91.9449V110.04C91.9449 109.165 91.7262 108.499 91.2889 108.04C90.8515 107.571 90.2542 107.336 89.4969 107.336C88.7289 107.336 88.1155 107.576 87.6569 108.056C87.2089 108.536 86.9849 109.235 86.9849 110.152V115H85.5289V103.16H86.9849V107.48C87.2729 107.032 87.6675 106.685 88.1689 106.44C88.6809 106.195 89.2515 106.072 89.8809 106.072ZM96.5153 104.808C96.2379 104.808 96.0033 104.712 95.8113 104.52C95.6193 104.328 95.5233 104.093 95.5233 103.816C95.5233 103.539 95.6193 103.304 95.8113 103.112C96.0033 102.92 96.2379 102.824 96.5153 102.824C96.7819 102.824 97.0059 102.92 97.1873 103.112C97.3793 103.304 97.4753 103.539 97.4753 103.816C97.4753 104.093 97.3793 104.328 97.1873 104.52C97.0059 104.712 96.7819 104.808 96.5153 104.808ZM97.2193 106.232V115H95.7633V106.232H97.2193ZM103.525 115.144C102.703 115.144 101.957 114.957 101.285 114.584C100.623 114.211 100.101 113.683 99.7168 113C99.3434 112.307 99.1568 111.507 99.1568 110.6C99.1568 109.704 99.3488 108.915 99.7328 108.232C100.127 107.539 100.661 107.011 101.333 106.648C102.005 106.275 102.757 106.088 103.589 106.088C104.421 106.088 105.173 106.275 105.845 106.648C106.517 107.011 107.045 107.533 107.429 108.216C107.823 108.899 108.021 109.693 108.021 110.6C108.021 111.507 107.818 112.307 107.413 113C107.018 113.683 106.479 114.211 105.797 114.584C105.114 114.957 104.357 115.144 103.525 115.144ZM103.525 113.864C104.047 113.864 104.538 113.741 104.997 113.496C105.455 113.251 105.823 112.883 106.101 112.392C106.389 111.901 106.533 111.304 106.533 110.6C106.533 109.896 106.394 109.299 106.117 108.808C105.839 108.317 105.477 107.955 105.029 107.72C104.581 107.475 104.095 107.352 103.573 107.352C103.039 107.352 102.549 107.475 102.101 107.72C101.663 107.955 101.311 108.317 101.045 108.808C100.778 109.299 100.645 109.896 100.645 110.6C100.645 111.315 100.773 111.917 101.029 112.408C101.295 112.899 101.647 113.267 102.085 113.512C102.522 113.747 103.002 113.864 103.525 113.864ZM114.207 106.072C115.274 106.072 116.138 106.397 116.799 107.048C117.46 107.688 117.791 108.616 117.791 109.832V115H116.351V110.04C116.351 109.165 116.132 108.499 115.695 108.04C115.258 107.571 114.66 107.336 113.903 107.336C113.135 107.336 112.522 107.576 112.063 108.056C111.615 108.536 111.391 109.235 111.391 110.152V115H109.935V106.232H111.391V107.48C111.679 107.032 112.068 106.685 112.559 106.44C113.06 106.195 113.61 106.072 114.207 106.072Z" fill="black"/>
<g clip-path="url(#clip0_157_1851)">
<path d="M104.667 34.3333H67.3333C66.0447 34.3333 65 35.378 65 36.6667V60C65 61.2887 66.0447 62.3333 67.3333 62.3333H104.667C105.955 62.3333 107 61.2887 107 60V36.6667C107 35.378 105.955 34.3333 104.667 34.3333Z" stroke="black" stroke-width="2" stroke-linecap="round" stroke-linejoin="round"/>
<path d="M74.3335 71.6667H97.6668" stroke="black" stroke-width="2" stroke-linecap="round" stroke-linejoin="round"/>
<path d="M79 62.3333V71.6667" stroke="black" stroke-width="2" stroke-linecap="round" stroke-linejoin="round"/>
<path d="M93 62.3333V71.6667" stroke="black" stroke-width="2" stroke-linecap="round" stroke-linejoin="round"/>
<path d="M66 57H106" stroke="black" stroke-width="2" stroke-linecap="round"/>
</g>
<defs>
<clipPath id="clip0_157_1851">
<rect width="56" height="56" fill="white" transform="translate(58 25)"/>
</clipPath>
</defs>
</svg>
