<svg width="170" height="145" viewBox="0 0 170 145" fill="none" xmlns="http://www.w3.org/2000/svg">
<rect x="0.5" y="0.5" width="169" height="144" rx="3.5" stroke="black" stroke-opacity="0.3"/>
<path d="M58.5985 103.848V105.032H53.7505V108.792H57.6865V109.976H53.7505V115H52.2945V103.848H58.5985ZM68.133 106.232V115H66.677V113.704C66.3997 114.152 66.0103 114.504 65.509 114.76C65.0183 115.005 64.4743 115.128 63.877 115.128C63.1943 115.128 62.581 114.989 62.037 114.712C61.493 114.424 61.061 113.997 60.741 113.432C60.4317 112.867 60.277 112.179 60.277 111.368V106.232H61.717V111.176C61.717 112.04 61.9357 112.707 62.373 113.176C62.8103 113.635 63.4077 113.864 64.165 113.864C64.9437 113.864 65.557 113.624 66.005 113.144C66.453 112.664 66.677 111.965 66.677 111.048V106.232H68.133ZM72.0474 107.656C72.3034 107.155 72.666 106.765 73.1354 106.488C73.6154 106.211 74.1967 106.072 74.8794 106.072V107.576H74.4954C72.8634 107.576 72.0474 108.461 72.0474 110.232V115H70.5914V106.232H72.0474V107.656ZM80.8321 106.072C81.8988 106.072 82.7628 106.397 83.4241 107.048C84.0855 107.688 84.4161 108.616 84.4161 109.832V115H82.9761V110.04C82.9761 109.165 82.7575 108.499 82.3201 108.04C81.8828 107.571 81.2855 107.336 80.5281 107.336C79.7601 107.336 79.1468 107.576 78.6881 108.056C78.2401 108.536 78.0161 109.235 78.0161 110.152V115H76.5601V106.232H78.0161V107.48C78.3041 107.032 78.6935 106.685 79.1841 106.44C79.6855 106.195 80.2348 106.072 80.8321 106.072ZM87.5465 104.808C87.2692 104.808 87.0345 104.712 86.8425 104.52C86.6505 104.328 86.5545 104.093 86.5545 103.816C86.5545 103.539 86.6505 103.304 86.8425 103.112C87.0345 102.92 87.2692 102.824 87.5465 102.824C87.8132 102.824 88.0372 102.92 88.2185 103.112C88.4105 103.304 88.5065 103.539 88.5065 103.816C88.5065 104.093 88.4105 104.328 88.2185 104.52C88.0372 104.712 87.8132 104.808 87.5465 104.808ZM88.2505 106.232V115H86.7945V106.232H88.2505ZM92.508 107.432V112.6C92.508 113.027 92.5987 113.331 92.78 113.512C92.9613 113.683 93.276 113.768 93.724 113.768H94.796V115H93.484C92.6733 115 92.0653 114.813 91.66 114.44C91.2547 114.067 91.052 113.453 91.052 112.6V107.432H89.916V106.232H91.052V104.024H92.508V106.232H94.796V107.432H92.508ZM104.336 106.232V115H102.88V113.704C102.603 114.152 102.213 114.504 101.712 114.76C101.221 115.005 100.677 115.128 100.08 115.128C99.3975 115.128 98.7841 114.989 98.2401 114.712C97.6961 114.424 97.2641 113.997 96.9441 113.432C96.6348 112.867 96.4801 112.179 96.4801 111.368V106.232H97.9201V111.176C97.9201 112.04 98.1388 112.707 98.5761 113.176C99.0135 113.635 99.6108 113.864 100.368 113.864C101.147 113.864 101.76 113.624 102.208 113.144C102.656 112.664 102.88 111.965 102.88 111.048V106.232H104.336ZM108.251 107.656C108.507 107.155 108.869 106.765 109.339 106.488C109.819 106.211 110.4 106.072 111.083 106.072V107.576H110.699C109.067 107.576 108.251 108.461 108.251 110.232V115H106.795V106.232H108.251V107.656ZM120.763 110.28C120.763 110.557 120.747 110.851 120.715 111.16H113.707C113.761 112.024 114.054 112.701 114.587 113.192C115.131 113.672 115.787 113.912 116.555 113.912C117.185 113.912 117.707 113.768 118.123 113.48C118.55 113.181 118.849 112.787 119.019 112.296H120.587C120.353 113.139 119.883 113.827 119.179 114.36C118.475 114.883 117.601 115.144 116.555 115.144C115.723 115.144 114.977 114.957 114.315 114.584C113.665 114.211 113.153 113.683 112.779 113C112.406 112.307 112.219 111.507 112.219 110.6C112.219 109.693 112.401 108.899 112.763 108.216C113.126 107.533 113.633 107.011 114.283 106.648C114.945 106.275 115.702 106.088 116.555 106.088C117.387 106.088 118.123 106.269 118.763 106.632C119.403 106.995 119.894 107.496 120.235 108.136C120.587 108.765 120.763 109.48 120.763 110.28ZM119.259 109.976C119.259 109.421 119.137 108.947 118.891 108.552C118.646 108.147 118.31 107.843 117.883 107.64C117.467 107.427 117.003 107.32 116.491 107.32C115.755 107.32 115.126 107.555 114.603 108.024C114.091 108.493 113.798 109.144 113.723 109.976H119.259Z" fill="black"/>
<g clip-path="url(#clip0_157_1852)">
<path d="M92 39H78C74.134 39 71 42.134 71 46V60C71 63.866 74.134 67 78 67H92C95.866 67 99 63.866 99 60V46C99 42.134 95.866 39 92 39Z" stroke="black" stroke-width="2" stroke-linecap="round" stroke-linejoin="round"/>
<path d="M78 67V74H92V67" stroke="black" stroke-width="2" stroke-linecap="round" stroke-linejoin="round"/>
<path d="M78 39V32H92V39" stroke="black" stroke-width="2" stroke-linecap="round" stroke-linejoin="round"/>
<line x1="81" y1="48" x2="81" y2="59" stroke="black" stroke-width="2" stroke-linecap="round"/>
<line x1="85" y1="53" x2="85" y2="59" stroke="black" stroke-width="2" stroke-linecap="round"/>
<line x1="89" y1="51" x2="89" y2="59" stroke="black" stroke-width="2" stroke-linecap="round"/>
</g>
<defs>
<clipPath id="clip0_157_1852">
<rect width="56" height="56" fill="white" transform="translate(57 25)"/>
</clipPath>
</defs>
</svg>
