<svg width="170" height="145" viewBox="0 0 170 145" fill="none" xmlns="http://www.w3.org/2000/svg">
<rect x="0.5" y="0.5" width="169" height="144" rx="3.5" stroke="black" stroke-opacity="0.3"/>
<path d="M71.6273 103.848V105.032H68.5873V115H67.1313V105.032H64.0753V103.848H71.6273ZM81.4195 110.28C81.4195 110.557 81.4035 110.851 81.3715 111.16H74.3635C74.4168 112.024 74.7102 112.701 75.2435 113.192C75.7875 113.672 76.4435 113.912 77.2115 113.912C77.8408 113.912 78.3635 113.768 78.7795 113.48C79.2062 113.181 79.5048 112.787 79.6755 112.296H81.2435C81.0088 113.139 80.5395 113.827 79.8355 114.36C79.1315 114.883 78.2568 115.144 77.2115 115.144C76.3795 115.144 75.6328 114.957 74.9715 114.584C74.3208 114.211 73.8088 113.683 73.4355 113C73.0622 112.307 72.8755 111.507 72.8755 110.6C72.8755 109.693 73.0568 108.899 73.4195 108.216C73.7822 107.533 74.2888 107.011 74.9395 106.648C75.6008 106.275 76.3582 106.088 77.2115 106.088C78.0435 106.088 78.7795 106.269 79.4195 106.632C80.0595 106.995 80.5502 107.496 80.8915 108.136C81.2435 108.765 81.4195 109.48 81.4195 110.28ZM79.9155 109.976C79.9155 109.421 79.7928 108.947 79.5475 108.552C79.3022 108.147 78.9662 107.843 78.5395 107.64C78.1235 107.427 77.6595 107.32 77.1475 107.32C76.4115 107.32 75.7822 107.555 75.2595 108.024C74.7475 108.493 74.4542 109.144 74.3795 109.976H79.9155ZM82.7974 110.6C82.7974 109.693 82.9787 108.904 83.3414 108.232C83.704 107.549 84.2054 107.021 84.8454 106.648C85.496 106.275 86.2374 106.088 87.0694 106.088C88.1467 106.088 89.032 106.349 89.7254 106.872C90.4294 107.395 90.8934 108.12 91.1174 109.048H89.5494C89.4 108.515 89.1067 108.093 88.6694 107.784C88.2427 107.475 87.7094 107.32 87.0694 107.32C86.2374 107.32 85.5654 107.608 85.0534 108.184C84.5414 108.749 84.2854 109.555 84.2854 110.6C84.2854 111.656 84.5414 112.472 85.0534 113.048C85.5654 113.624 86.2374 113.912 87.0694 113.912C87.7094 113.912 88.2427 113.763 88.6694 113.464C89.096 113.165 89.3894 112.739 89.5494 112.184H91.1174C90.8827 113.08 90.4134 113.8 89.7094 114.344C89.0054 114.877 88.1254 115.144 87.0694 115.144C86.2374 115.144 85.496 114.957 84.8454 114.584C84.2054 114.211 83.704 113.683 83.3414 113C82.9787 112.317 82.7974 111.517 82.7974 110.6ZM97.4121 106.072C98.0735 106.072 98.6708 106.216 99.2041 106.504C99.7375 106.781 100.153 107.203 100.452 107.768C100.761 108.333 100.916 109.021 100.916 109.832V115H99.4761V110.04C99.4761 109.165 99.2575 108.499 98.8201 108.04C98.3828 107.571 97.7855 107.336 97.0281 107.336C96.2601 107.336 95.6468 107.576 95.1881 108.056C94.7401 108.536 94.5161 109.235 94.5161 110.152V115H93.0601V103.16H94.5161V107.48C94.8041 107.032 95.1988 106.685 95.7001 106.44C96.2121 106.195 96.7828 106.072 97.4121 106.072Z" fill="black"/>
<g clip-path="url(#clip0_157_1850)">
<path d="M95.9375 31.125H74.0625C72.5523 31.125 71.3281 32.3492 71.3281 33.8594V72.1406C71.3281 73.6508 72.5523 74.875 74.0625 74.875H95.9375C97.4477 74.875 98.6719 73.6508 98.6719 72.1406V33.8594C98.6719 32.3492 97.4477 31.125 95.9375 31.125Z" stroke="black" stroke-width="2" stroke-linecap="round" stroke-linejoin="round"/>
<path d="M82.6665 32H88.1353" stroke="black" stroke-width="3" stroke-linecap="round" stroke-linejoin="round"/>
<path d="M85 69.0052V69.0305" stroke="black" stroke-width="2.5" stroke-linecap="round" stroke-linejoin="round"/>
<line x1="72.1665" y1="64.8333" x2="97.8332" y2="64.8333" stroke="black" stroke-width="2"/>
</g>
<defs>
<clipPath id="clip0_157_1850">
<rect width="56" height="56" fill="white" transform="translate(57 25)"/>
</clipPath>
</defs>
</svg>
